<svg id="Capa_1" data-name="Capa 1" xmlns="http://www.w3.org/2000/svg" xmlns:xlink="http://www.w3.org/1999/xlink" viewBox="0 0 309.9 72.96"><defs><style>.cls-1,.cls-2{fill:none;}.cls-2{clip-rule:evenodd;}.cls-3{clip-path:url(#clip-path);}.cls-4{clip-path:url(#clip-path-2);}.cls-5{fill:#80ca6e;}.cls-6{clip-path:url(#clip-path-3);}.cls-7{clip-path:url(#clip-path-5);}.cls-8{clip-path:url(#clip-path-7);}.cls-9{fill:#1e2433;}.cls-10{clip-path:url(#clip-path-9);}.cls-11{clip-path:url(#clip-path-11);}.cls-12{clip-path:url(#clip-path-13);}.cls-13{clip-path:url(#clip-path-15);}.cls-14{clip-path:url(#clip-path-17);}.cls-15{isolation:isolate;}.cls-16{clip-path:url(#clip-path-19);}.cls-17{clip-path:url(#clip-path-20);}</style><clipPath id="clip-path" transform="translate(5 5)"><rect class="cls-1" y="10.9" width="13.02" height="29.28"/></clipPath><clipPath id="clip-path-2" transform="translate(5 5)"><rect class="cls-1" x="-388" y="-573" width="1440" height="1024"/></clipPath><clipPath id="clip-path-3" transform="translate(5 5)"><rect class="cls-1" x="39.05" width="13.02" height="40.18"/></clipPath><clipPath id="clip-path-5" transform="translate(5 5)"><rect class="cls-1" x="19.52" y="27.16" width="13.02" height="35.79"/></clipPath><clipPath id="clip-path-7" transform="translate(5 5)"><path class="cls-2" d="M87.69,27.31H76.17V41.38a25.7,25.7,0,0,0,.17,3.17A6.36,6.36,0,0,0,77.13,47,3.87,3.87,0,0,0,79,48.63a8.33,8.33,0,0,0,3.36.57A23.78,23.78,0,0,0,85.11,49a4.75,4.75,0,0,0,2.58-1V58.83a19.86,19.86,0,0,1-4.54,1.05,43,43,0,0,1-4.63.26,25,25,0,0,1-6.11-.7,13.89,13.89,0,0,1-4.88-2.21,10.28,10.28,0,0,1-3.27-3.95,13.39,13.39,0,0,1-1.18-5.91v-43H76.17v12.5H87.69Z"/></clipPath><clipPath id="clip-path-9" transform="translate(5 5)"><path class="cls-2" d="M120.93,53.8h-.17a12.29,12.29,0,0,1-5.8,4.86,20.18,20.18,0,0,1-7.64,1.48,19.83,19.83,0,0,1-5.72-.83,14.48,14.48,0,0,1-4.84-2.47,12,12,0,0,1-3.32-4.08,12.5,12.5,0,0,1-1.22-5.65A12.78,12.78,0,0,1,93.58,41a12,12,0,0,1,3.66-4.17,18,18,0,0,1,5.28-2.56,38.64,38.64,0,0,1,6.15-1.35,59.65,59.65,0,0,1,6.37-.52c2.13-.06,4.09-.09,5.89-.09a6.78,6.78,0,0,0-2.48-5.51,9,9,0,0,0-5.89-2,12.92,12.92,0,0,0-5.89,1.34,16.17,16.17,0,0,0-4.76,3.69l-7-7.12a24.12,24.12,0,0,1,8.55-5.08,30.66,30.66,0,0,1,10.12-1.69,26.71,26.71,0,0,1,9.47,1.43A13.81,13.81,0,0,1,129,21.49a16.16,16.16,0,0,1,3.1,6.82,44.7,44.7,0,0,1,.87,9.34V59.1h-12ZM117.7,40.6c-1,0-2.22,0-3.7.13a18.79,18.79,0,0,0-4.28.74,9.43,9.43,0,0,0-3.49,1.82,4.19,4.19,0,0,0-1.44,3.39,3.72,3.72,0,0,0,2,3.47A8.41,8.41,0,0,0,111,51.28a13.09,13.09,0,0,0,3.71-.52,11.13,11.13,0,0,0,3.19-1.48,7,7,0,0,0,2.22-2.43,6.88,6.88,0,0,0,.83-3.47V40.6Z"/></clipPath><clipPath id="clip-path-11" transform="translate(5 5)"><path class="cls-2" d="M178.52,59.1H166V53.36h-.18A14.49,14.49,0,0,1,164,55.8,11.87,11.87,0,0,1,161.33,58a16,16,0,0,1-3.57,1.56,15.23,15.23,0,0,1-4.37.61,18.46,18.46,0,0,1-8.07-1.52,11.61,11.61,0,0,1-4.8-4.21,16.61,16.61,0,0,1-2.27-6.34,51.38,51.38,0,0,1-.56-7.91V16.89h13.09V37.56c0,1.21,0,2.47.13,3.78a11.54,11.54,0,0,0,.78,3.6,5.63,5.63,0,0,0,5.89,3.73,8.06,8.06,0,0,0,4.1-.91,6.22,6.22,0,0,0,2.4-2.43,9.87,9.87,0,0,0,1.09-3.43,28.46,28.46,0,0,0,.26-4v-21h13.09Z"/></clipPath><clipPath id="clip-path-13" transform="translate(5 5)"><path class="cls-2" d="M184.28,16.89h13.09v6.77h.18a16.06,16.06,0,0,1,5-5.86,12.63,12.63,0,0,1,7.24-2c.76,0,1.52,0,2.27.09a11.82,11.82,0,0,1,2.1.34v11.9a19.16,19.16,0,0,0-2.75-.65,18.48,18.48,0,0,0-2.84-.22,14,14,0,0,0-5.93,1,7.87,7.87,0,0,0-3.36,2.91,11,11,0,0,0-1.53,4.48,43.63,43.63,0,0,0-.35,5.73V59.1H184.28Z"/></clipPath><clipPath id="clip-path-15" transform="translate(5 5)"><path class="cls-2" d="M214.91,38a22.11,22.11,0,0,1,1.83-9.12,21.28,21.28,0,0,1,5-7,22.28,22.28,0,0,1,7.51-4.47,27.94,27.94,0,0,1,18.41,0,22.24,22.24,0,0,1,7.5,4.47,21,21,0,0,1,5,7A22.11,22.11,0,0,1,262,38a22,22,0,0,1-1.83,9.12,20.9,20.9,0,0,1-5,7,22.08,22.08,0,0,1-7.5,4.47,27.77,27.77,0,0,1-18.41,0,22.12,22.12,0,0,1-7.51-4.47,21.18,21.18,0,0,1-5-7A22,22,0,0,1,214.91,38M228,38a10.9,10.9,0,0,0,2.75,7.73c1.83,2,4.41,3,7.72,3s5.89-1,7.72-3A10.85,10.85,0,0,0,248.94,38a10.87,10.87,0,0,0-2.75-7.73,11.58,11.58,0,0,0-15.44,0A10.91,10.91,0,0,0,228,38"/></clipPath><clipPath id="clip-path-17" transform="translate(5 5)"><rect class="cls-1" x="263.69" y="15.85" width="36.21" height="44.29"/></clipPath><clipPath id="clip-path-19" transform="translate(5 5)"><rect class="cls-1" x="263" y="15" width="37" height="46"/></clipPath><clipPath id="clip-path-20" transform="translate(5 5)"><path class="cls-2" d="M290.22,29.31a9.29,9.29,0,0,0-7.59-3.56,7.15,7.15,0,0,0-3.23.78,2.76,2.76,0,0,0-1.57,2.69,2.41,2.41,0,0,0,1.61,2.3,21.12,21.12,0,0,0,4.1,1.31L288.86,34a20.56,20.56,0,0,1,5.33,2,12,12,0,0,1,4.1,3.78,11.27,11.27,0,0,1,1.61,6.38A11.71,11.71,0,0,1,298.11,53a13.64,13.64,0,0,1-4.58,4.26,19.88,19.88,0,0,1-6.28,2.26,37.86,37.86,0,0,1-6.89.65,33.45,33.45,0,0,1-9-1.26,16.78,16.78,0,0,1-7.68-4.47l7.94-8.77a13.2,13.2,0,0,0,4.06,3.42,10.86,10.86,0,0,0,5.19,1.18,12.29,12.29,0,0,0,4.1-.65,2.41,2.41,0,0,0,1.83-2.39,2.64,2.64,0,0,0-1.61-2.48,17.93,17.93,0,0,0-4.1-1.39l-5.32-1.21a22.19,22.19,0,0,1-5.33-2,11,11,0,0,1-4.1-3.69,11.19,11.19,0,0,1-1.61-6.38,12.82,12.82,0,0,1,1.52-6.43,13.33,13.33,0,0,1,4-4.42A17.37,17.37,0,0,1,276,16.68a26.37,26.37,0,0,1,6.55-.83A30.47,30.47,0,0,1,291,17.07a15.69,15.69,0,0,1,7.25,4.34Z"/></clipPath></defs><title>tauros-logo-x1</title><g class="cls-3"><g class="cls-4"><rect class="cls-5" y="10.9" width="23.02" height="39.28"/></g></g><g class="cls-6"><g class="cls-4"><rect class="cls-5" x="39.05" width="23.02" height="50.18"/></g></g><g class="cls-7"><g class="cls-4"><rect class="cls-5" x="19.52" y="27.16" width="23.02" height="45.79"/></g></g><g class="cls-8"><g class="cls-4"><rect class="cls-9" x="63.08" y="4.39" width="34.61" height="65.75"/></g></g><g class="cls-10"><g class="cls-4"><rect class="cls-9" x="92.22" y="15.85" width="50.75" height="54.29"/></g></g><g class="cls-11"><g class="cls-4"><rect class="cls-9" x="137.69" y="16.89" width="50.84" height="53.25"/></g></g><g class="cls-12"><g class="cls-4"><rect class="cls-9" x="184.28" y="15.85" width="39.84" height="53.25"/></g></g><g class="cls-13"><g class="cls-4"><rect class="cls-9" x="214.91" y="15.85" width="57.12" height="54.29"/></g></g><g class="cls-14"><g class="cls-4"><g class="cls-15"><g class="cls-16"><g class="cls-17"><g class="cls-16"><rect class="cls-9" x="263.69" y="15.85" width="46.21" height="54.29"/></g></g></g></g></g></g></svg>